<svg version="1.1" id="Layer_1" xmlns="http://www.w3.org/2000/svg" xmlns:xlink="http://www.w3.org/1999/xlink" x="0px" y="0px"
	 width="100%" viewBox="0 0 428 235" enable-background="new 0 0 428 235" xml:space="preserve">
<path fill="#000000" opacity="1.000000" stroke="none" 
	d="
M247.000000,236.000000 
	C164.666702,236.000000 82.833389,236.000000 1.000066,236.000000 
	C1.000044,157.666718 1.000044,79.333450 1.000022,1.000129 
	C143.666550,1.000086 286.333099,1.000086 428.999756,1.000043 
	C428.999817,79.333199 428.999817,157.666397 428.999908,235.999786 
	C368.500000,236.000000 308.000000,236.000000 247.000000,236.000000 
M119.014343,72.660271 
	C119.066414,73.107315 119.118484,73.554352 119.016602,74.927299 
	C119.066650,84.284943 119.116699,93.642578 118.956078,103.543777 
	C118.637383,103.751251 118.318695,103.958733 117.095963,104.011772 
	C115.099022,104.007690 113.100624,103.952347 111.105431,104.009453 
	C105.842285,104.160103 103.705330,102.588501 103.872620,96.923798 
	C104.270363,83.456055 104.074791,69.967628 103.904243,56.490280 
	C103.883148,54.822929 102.558594,53.172073 101.838043,51.513573 
	C101.353065,51.711754 100.868095,51.909931 100.383118,52.108112 
	C99.921745,58.476433 99.243721,64.838318 99.054344,71.214714 
	C98.822243,79.029266 98.998909,86.855957 98.999062,94.677399 
	C98.999229,103.846329 98.999245,103.841934 89.689545,104.022125 
	C89.223450,104.031143 88.761009,104.228920 88.012215,104.406204 
	C88.140572,105.646477 88.261833,106.818176 88.398758,108.141190 
	C92.432404,108.141190 96.056129,108.141190 98.999352,108.141190 
	C98.999352,113.601112 98.980026,118.887413 99.006454,124.173485 
	C99.022842,127.450134 97.990425,129.300003 94.162468,129.071701 
	C89.205696,128.776077 84.217964,128.999573 78.847725,128.999573 
	C79.091980,130.734985 79.283722,132.097321 79.455765,133.319733 
	C86.483742,133.319733 92.992126,133.319733 99.498039,133.319733 
	C99.498039,146.501328 99.498039,159.654053 99.498039,172.743240 
	C100.925690,172.743240 102.328506,172.743240 103.930527,172.743240 
	C103.930527,159.538696 103.930527,146.587799 103.930527,133.113892 
	C109.081612,133.113892 114.019699,133.113892 118.996666,134.036102 
	C118.996666,146.930328 118.996666,159.824539 118.996666,173.043213 
	C120.636841,172.866257 121.803162,172.740417 122.931923,172.618622 
	C122.931923,166.405960 122.796288,160.604034 122.966080,154.811081 
	C123.180931,147.480957 123.644318,140.158142 124.926453,132.986694 
	C141.255997,132.990738 157.585678,133.026550 173.914810,132.945572 
	C175.409210,132.938171 176.899918,132.183609 179.485825,131.477356 
	C179.872131,132.856171 180.896652,134.862625 180.923889,136.882538 
	C181.080215,148.474182 180.999954,160.069016 180.999954,171.773010 
	C187.523392,171.773010 193.594482,171.773010 199.981140,171.773010 
	C199.981140,156.442917 199.981140,141.336029 199.981140,124.859795 
	C201.913635,126.459198 203.115768,127.226189 204.025864,128.252228 
	C206.301926,130.818176 208.466629,133.484375 210.638321,136.141159 
	C217.440445,144.462631 224.163452,152.849731 231.044388,161.105331 
	C234.164658,164.848938 237.053253,170.506912 240.986038,171.472794 
	C247.923355,173.176605 255.580460,171.949677 263.944946,171.949677 
	C248.036346,152.563690 232.918823,134.141724 217.969635,115.924873 
	C233.079254,98.235329 247.752670,81.056465 263.171692,63.004673 
	C255.520905,63.004673 249.361679,63.271866 243.241577,62.898163 
	C239.905716,62.694477 237.968124,64.180710 236.143326,66.424820 
	C231.931824,71.604088 227.772156,76.826080 223.517349,81.969414 
	C215.876862,91.205414 208.181900,100.396339 199.994843,110.224136 
	C199.994843,108.762138 199.994736,108.013847 199.994843,107.265564 
	C199.996765,94.102028 199.995789,80.938492 200.003403,67.774956 
	C200.004761,65.420158 200.390442,62.908741 196.724380,62.979816 
	C192.227097,63.067005 187.717621,62.846691 183.234818,63.115837 
	C182.201294,63.177883 180.429977,64.658325 180.396744,65.538834 
	C180.089371,73.683624 180.060959,81.839806 180.007904,89.993050 
	C179.964813,96.613365 179.999161,103.234177 179.999161,109.502945 
	C161.989624,109.502945 143.639130,109.502945 125.087151,109.502945 
	C125.855125,112.385056 126.655876,115.390198 127.717918,119.375916 
	C126.232704,118.224716 125.731857,117.836510 125.580147,117.718910 
	C125.058006,121.832596 124.529121,125.999481 123.382523,129.893738 
	C123.197624,129.258865 123.012726,128.624008 122.983536,127.066711 
	C122.931709,121.710579 122.879883,116.354446 122.982567,110.119942 
	C124.259827,109.413368 125.531357,108.104332 126.815208,108.092140 
	C141.945023,107.948479 157.076675,107.999359 172.207855,107.997566 
	C173.371735,107.997429 174.635620,108.265495 175.669083,107.895348 
	C176.558258,107.576874 177.184586,106.524475 177.927139,105.796600 
	C177.217941,105.203468 176.590698,104.314926 175.779404,104.089882 
	C174.697083,103.789642 173.471756,103.999748 172.307846,103.999657 
	C157.176666,103.998444 142.045029,104.050011 126.915123,103.911903 
	C125.548744,103.899429 124.193512,102.666534 122.982040,101.073524 
	C122.931763,92.049492 122.881485,83.025452 122.985603,73.339508 
	C122.932808,72.892532 122.880013,72.445564 122.978218,71.336975 
	C122.596718,70.558441 122.215225,69.779900 121.989311,68.199814 
	C121.439247,67.471001 120.889191,66.742180 120.339134,66.013367 
	C119.949280,67.009384 119.559418,68.005394 119.015610,69.742844 
	C119.066963,70.494774 119.118317,71.246704 119.014343,72.660271 
M273.999634,89.500046 
	C273.999634,117.167068 273.999634,144.834091 273.999634,172.018707 
	C298.734528,172.018707 322.340363,172.018707 345.995117,172.018707 
	C345.995117,167.936111 345.860016,164.598663 346.028412,161.276611 
	C346.252838,156.848969 344.840179,154.770920 339.887878,154.906250 
	C328.404144,155.220123 316.905853,155.001801 305.413483,154.999710 
	C301.322906,154.998962 297.232330,154.999603 293.308899,154.999603 
	C293.308899,144.970337 293.308899,135.566483 293.308899,125.833862 
	C309.049286,125.833862 324.482941,125.833862 340.376251,125.833862 
	C339.853577,124.014145 339.286133,122.654358 339.104553,121.244865 
	C338.893402,119.606270 338.927551,117.919090 339.017212,116.261757 
	C339.364685,109.839455 339.073059,109.418083 332.589081,109.029533 
	C329.767761,108.860466 326.927856,109.000404 324.096405,109.000374 
	C313.827728,109.000275 303.559021,109.000343 293.225037,109.000343 
	C293.225037,99.102928 293.225037,89.701805 293.225037,80.172577 
	C293.594055,80.386612 293.737427,80.542145 293.882294,80.543526 
	C310.343445,80.700867 326.804993,80.908073 343.265137,80.829666 
	C344.181671,80.825302 345.780823,78.501656 345.872223,77.175499 
	C346.194336,72.501602 345.997437,67.791924 345.997437,63.000099 
	C322.754730,63.000099 300.104462,63.018375 277.454285,62.972107 
	C275.165070,62.967430 273.480164,63.033558 273.586914,66.107399 
	C273.846039,73.567406 273.876862,81.035347 273.999634,89.500046 
z"/>
<path fill="#FFFFFF" opacity="1.000000" stroke="none" 
	d="
M124.000229,130.166367 
	C124.529121,125.999481 125.058006,121.832596 125.580147,117.718910 
	C125.731857,117.836510 126.232704,118.224716 127.717918,119.375916 
	C126.655876,115.390198 125.855125,112.385056 125.087151,109.502945 
	C143.639130,109.502945 161.989624,109.502945 179.999161,109.502945 
	C179.999161,103.234177 179.964813,96.613365 180.007904,89.993050 
	C180.060959,81.839806 180.089371,73.683624 180.396744,65.538834 
	C180.429977,64.658325 182.201294,63.177883 183.234818,63.115837 
	C187.717621,62.846691 192.227097,63.067005 196.724380,62.979816 
	C200.390442,62.908741 200.004761,65.420158 200.003403,67.774956 
	C199.995789,80.938492 199.996765,94.102028 199.994843,107.265564 
	C199.994736,108.013847 199.994843,108.762138 199.994843,110.224136 
	C208.181900,100.396339 215.876862,91.205414 223.517349,81.969414 
	C227.772156,76.826080 231.931824,71.604088 236.143326,66.424820 
	C237.968124,64.180710 239.905716,62.694477 243.241577,62.898163 
	C249.361679,63.271866 255.520905,63.004673 263.171692,63.004673 
	C247.752670,81.056465 233.079254,98.235329 217.969635,115.924873 
	C232.918823,134.141724 248.036346,152.563690 263.944946,171.949677 
	C255.580460,171.949677 247.923355,173.176605 240.986038,171.472794 
	C237.053253,170.506912 234.164658,164.848938 231.044388,161.105331 
	C224.163452,152.849731 217.440445,144.462631 210.638321,136.141159 
	C208.466629,133.484375 206.301926,130.818176 204.025864,128.252228 
	C203.115768,127.226189 201.913635,126.459198 199.981140,124.859795 
	C199.981140,141.336029 199.981140,156.442917 199.981140,171.773010 
	C193.594482,171.773010 187.523392,171.773010 180.999954,171.773010 
	C180.999954,160.069016 181.080215,148.474182 180.923889,136.882538 
	C180.896652,134.862625 179.872131,132.856171 179.485825,131.477356 
	C176.899918,132.183609 175.409210,132.938171 173.914810,132.945572 
	C157.585678,133.026550 141.255997,132.990738 124.463364,132.576202 
	C124.000252,131.499268 124.000237,130.832809 124.000229,130.166367 
z"/>
<path fill="#FFFFFF" opacity="1.000000" stroke="none" 
	d="
M273.999634,89.000069 
	C273.876862,81.035347 273.846039,73.567406 273.586914,66.107399 
	C273.480164,63.033558 275.165070,62.967430 277.454285,62.972107 
	C300.104462,63.018375 322.754730,63.000099 345.997437,63.000099 
	C345.997437,67.791924 346.194336,72.501602 345.872223,77.175499 
	C345.780823,78.501656 344.181671,80.825302 343.265137,80.829666 
	C326.804993,80.908073 310.343445,80.700867 293.882294,80.543526 
	C293.737427,80.542145 293.594055,80.386612 293.225037,80.172577 
	C293.225037,89.701805 293.225037,99.102928 293.225037,109.000343 
	C303.559021,109.000343 313.827728,109.000275 324.096405,109.000374 
	C326.927856,109.000404 329.767761,108.860466 332.589081,109.029533 
	C339.073059,109.418083 339.364685,109.839455 339.017212,116.261757 
	C338.927551,117.919090 338.893402,119.606270 339.104553,121.244865 
	C339.286133,122.654358 339.853577,124.014145 340.376251,125.833862 
	C324.482941,125.833862 309.049286,125.833862 293.308899,125.833862 
	C293.308899,135.566483 293.308899,144.970337 293.308899,154.999603 
	C297.232330,154.999603 301.322906,154.998962 305.413483,154.999710 
	C316.905853,155.001801 328.404144,155.220123 339.887878,154.906250 
	C344.840179,154.770920 346.252838,156.848969 346.028412,161.276611 
	C345.860016,164.598663 345.995117,167.936111 345.995117,172.018707 
	C322.340363,172.018707 298.734528,172.018707 273.999634,172.018707 
	C273.999634,144.834091 273.999634,117.167068 273.999634,89.000069 
z"/>
<path fill="#FEFEFE" opacity="1.000000" stroke="none" 
	d="
M118.957794,133.113892 
	C114.019699,133.113892 109.081612,133.113892 103.930527,133.113892 
	C103.930527,146.587799 103.930527,159.538696 103.930527,172.743240 
	C102.328506,172.743240 100.925690,172.743240 99.498039,172.743240 
	C99.498039,159.654053 99.498039,146.501328 99.498039,133.319733 
	C92.992126,133.319733 86.483742,133.319733 79.455765,133.319733 
	C79.283722,132.097321 79.091980,130.734985 78.847725,128.999573 
	C84.217964,128.999573 89.205696,128.776077 94.162468,129.071701 
	C97.990425,129.300003 99.022842,127.450134 99.006454,124.173485 
	C98.980026,118.887413 98.999352,113.601112 98.999352,108.141190 
	C96.056129,108.141190 92.432404,108.141190 88.398758,108.141190 
	C88.261833,106.818176 88.140572,105.646477 88.012215,104.406204 
	C88.761009,104.228920 89.223450,104.031143 89.689545,104.022125 
	C98.999245,103.841934 98.999229,103.846329 98.999062,94.677399 
	C98.998909,86.855957 98.822243,79.029266 99.054344,71.214714 
	C99.243721,64.838318 99.921745,58.476433 100.383118,52.108112 
	C100.868095,51.909931 101.353065,51.711754 101.838043,51.513573 
	C102.558594,53.172073 103.883148,54.822929 103.904243,56.490280 
	C104.074791,69.967628 104.270363,83.456055 103.872620,96.923798 
	C103.705330,102.588501 105.842285,104.160103 111.105431,104.009453 
	C113.100624,103.952347 115.099022,104.007690 117.547981,104.455673 
	C118.000214,105.877449 118.000420,106.855309 117.547501,107.910507 
	C112.762032,107.987831 108.429680,107.987831 103.859451,107.987831 
	C103.859451,115.292381 103.859451,122.005127 103.859451,128.499985 
	C109.273659,128.996689 114.115677,129.440887 118.969650,130.288620 
	C118.973656,131.499390 118.965721,132.306641 118.957794,133.113892 
z"/>
<path fill="#FEFEFE" opacity="1.000000" stroke="none" 
	d="
M118.000633,107.833176 
	C118.000420,106.855309 118.000214,105.877449 118.000000,104.532898 
	C118.318695,103.958733 118.637383,103.751251 119.379486,103.238113 
	C120.812973,102.621765 121.823036,102.311081 122.833107,102.000397 
	C124.193512,102.666534 125.548744,103.899429 126.915123,103.911903 
	C142.045029,104.050011 157.176666,103.998444 172.307846,103.999657 
	C173.471756,103.999748 174.697083,103.789642 175.779404,104.089882 
	C176.590698,104.314926 177.217941,105.203468 177.927139,105.796600 
	C177.184586,106.524475 176.558258,107.576874 175.669083,107.895348 
	C174.635620,108.265495 173.371735,107.997429 172.207855,107.997566 
	C157.076675,107.999359 141.945023,107.948479 126.815208,108.092140 
	C125.531357,108.104332 124.259827,109.413368 122.539749,110.559402 
	C121.122086,110.998825 120.147232,110.998779 119.092613,110.640221 
	C118.675446,109.465538 118.338036,108.649353 118.000633,107.833176 
z"/>
<path fill="#FDFDFD" opacity="1.000000" stroke="none" 
	d="
M118.977226,133.574997 
	C118.965721,132.306641 118.973656,131.499390 118.988716,129.926270 
	C119.053444,128.440506 119.111038,127.720589 119.390732,127.109390 
	C120.684494,127.475121 121.756165,127.732132 122.827820,127.989136 
	C123.012726,128.624008 123.197624,129.258865 123.691376,130.030060 
	C124.000237,130.832809 124.000252,131.499268 124.000397,132.498932 
	C123.644318,140.158142 123.180931,147.480957 122.966080,154.811081 
	C122.796288,160.604034 122.931923,166.405960 122.931923,172.618622 
	C121.803162,172.740417 120.636841,172.866257 118.996666,173.043213 
	C118.996666,159.824539 118.996666,146.930328 118.977226,133.574997 
z"/>
<path fill="#FEFEFE" opacity="1.000000" stroke="none" 
	d="
M122.907578,101.536957 
	C121.823036,102.311081 120.812973,102.621765 119.484818,102.966339 
	C119.116699,93.642578 119.066650,84.284943 119.459755,74.463852 
	C120.879005,74.000740 121.855110,74.001076 122.831207,74.001419 
	C122.881485,83.025452 122.931763,92.049492 122.907578,101.536957 
z"/>
<path fill="#FCFDFD" opacity="1.000000" stroke="none" 
	d="
M122.905685,127.527924 
	C121.756165,127.732132 120.684494,127.475121 119.313980,126.647995 
	C119.067543,121.051491 119.119957,116.025108 119.172379,110.998726 
	C120.147232,110.998779 121.122086,110.998825 122.462494,110.998596 
	C122.879883,116.354446 122.931709,121.710579 122.905685,127.527924 
z"/>
<path fill="#FEFEFE" opacity="1.000000" stroke="none" 
	d="
M121.833725,69.001366 
	C122.215225,69.779900 122.596718,70.558441 122.536850,71.668259 
	C121.120216,71.999237 120.144951,71.998932 119.169678,71.998627 
	C119.118317,71.246704 119.066963,70.494774 119.425537,69.371590 
	C120.501549,69.000679 121.167641,69.001022 121.833725,69.001366 
z"/>
<path fill="#FDFDFD" opacity="1.000000" stroke="none" 
	d="
M121.911514,68.600586 
	C121.167641,69.001022 120.501549,69.000679 119.502510,69.000870 
	C119.559418,68.005394 119.949280,67.009384 120.339134,66.013367 
	C120.889191,66.742180 121.439247,67.471001 121.911514,68.600586 
z"/>
<path fill="#FDFDFD" opacity="1.000000" stroke="none" 
	d="
M119.092010,72.329453 
	C120.144951,71.998932 121.120216,71.999237 122.461349,71.999062 
	C122.880013,72.445564 122.932808,72.892532 122.908401,73.670456 
	C121.855110,74.001076 120.879005,74.000740 119.536728,74.000900 
	C119.118484,73.554352 119.066414,73.107315 119.092010,72.329453 
z"/>
<path fill="#000000" opacity="1.000000" stroke="none" 
	d="
M119.092613,110.640221 
	C119.119957,116.025108 119.067543,121.051491 119.091881,126.539276 
	C119.111038,127.720589 119.053444,128.440506 118.976776,129.522766 
	C114.115677,129.440887 109.273659,128.996689 103.859451,128.499985 
	C103.859451,122.005127 103.859451,115.292381 103.859451,107.987831 
	C108.429680,107.987831 112.762032,107.987831 117.547501,107.910507 
	C118.338036,108.649353 118.675446,109.465538 119.092613,110.640221 
z"/>
</svg>